<svg width="55px" height="56px" viewBox="0 0 55 56" version="1.1" xmlns="http://www.w3.org/2000/svg" xmlnsXlink="http://www.w3.org/1999/xlink">
  <g id="Page-1" stroke="none" strokeWidth="1" fill="none" fillRule="evenodd">
    <g id="iconfinder_start-date-calendar-coverage_4138409" fillRule="nonzero">
      <path d="M21.14,28.59105 C20.9993961,28.59105 20.8603714,28.5613607 20.7319999,28.504 C20.147,28.242 17.2319999,26.829 17.2319999,24.682 L17.2319999,20.682 C17.2318902,20.4064349 17.3454984,20.1430377 17.546,19.954 C17.7479824,19.7669192 18.0170697,19.6695283 18.292,19.684 C18.386,19.684 18.482,19.692 18.58,19.692 C19.2516035,19.7325823 19.9182637,19.5543384 20.48,19.184 C20.8583007,18.8494159 21.4266993,18.8494159 21.805,19.184 C22.3668557,19.5540724 23.0334257,19.7322922 23.705,19.692 C23.805,19.692 23.905,19.692 23.994,19.684 C24.2694504,19.6674427 24.5394995,19.7654438 24.740222,19.9548046 C24.9409446,20.1441655 25.0544972,20.4080529 25.0540016,20.684 L25.0540016,24.684 C24.9353146,25.8873522 24.2379417,26.9574781 23.185,27.552 C22.6714436,27.9191463 22.1251316,28.2381631 21.553,28.505 C21.42314,28.5630959 21.2822558,28.5924326 21.14,28.59105 L21.14,28.59105 Z M19.233,21.659 L19.233,24.682 C19.233,25.173 20.167,25.955 21.133,26.474 C21.4351898,26.3103523 21.7270698,26.1283447 22.007,25.929 C22.774,25.374 23.048,24.921 23.048,24.682 L23.048,21.659 C22.384384,21.6022304 21.737249,21.4217924 21.14,21.127 C20.5430679,21.4216948 19.8962788,21.6021309 19.233,21.659 L19.233,21.659 Z" id="Shape" fill="rgb(var(--primary))" transform="translate(21.143002, 23.762079) rotate(-90.000000) translate(-21.143002, -23.762079) " />
      <path d="M45.118,50.835 C44.9770591,50.8351033 44.8376791,50.8054984 44.709,50.748 C44.125,50.486 41.209,49.072 41.209,46.926 L41.209,42.926 C41.209,42.651926 41.3213617,42.389837 41.52,42.201 C41.7193685,42.0131999 41.9864017,41.9143254 42.26,41.927 C42.36,41.927 42.46,41.937 42.56,41.937 C43.2317,41.9771422 43.8983242,41.7985571 44.46,41.428 C44.8384583,41.0928259 45.4075417,41.0928259 45.786,41.428 C46.3471641,41.7997774 47.0140927,41.9787951 47.686,41.938 C47.786,41.938 47.886,41.933 47.986,41.928 C48.2599372,41.9140108 48.527595,42.0131589 48.7263117,42.2022329 C48.9250284,42.3913069 49.037357,42.653706 49.0370008,42.928 L49.0370008,46.928 C48.9189902,48.1313334 48.2213868,49.2014398 47.168,49.795 C46.6547485,50.162358 46.1087798,50.4817045 45.537,50.749 C45.4052292,50.8077335 45.2622527,50.8370795 45.118,50.835 L45.118,50.835 Z M43.21,43.9 L43.21,46.923 C43.21,47.436 44.216,48.223 45.11,48.714 C45.4121243,48.5511608 45.7037007,48.3694683 45.983,48.17 C46.751,47.615 47.024,47.162 47.024,46.923 L47.024,43.9 C46.3606346,43.8429338 45.7138213,43.6621517 45.117,43.367 C44.5200352,43.6617768 43.8732938,43.8425388 43.21,43.9 L43.21,43.9 Z" id="Shape" fill="rgb(var(--primary))" transform="translate(45.123001, 46.005861) rotate(-90.000000) translate(-45.123001, -46.005861) " />
      <path d="M34.509,28.236 L31.185,28.236 C29.6326607,28.2343465 28.3746535,26.9763393 28.373,25.424 L28.373,22.1 C28.3746535,20.5476607 29.6326607,19.2896535 31.185,19.288 L34.509,19.288 C36.0615017,19.2896524 37.3197956,20.5474989 37.322,22.1 L37.322,25.425 C37.3197946,26.9773388 36.0613399,28.2348987 34.509,28.236 Z M31.185,21.287 C30.7367732,21.287551 30.373551,21.6507732 30.373,22.099 L30.373,25.424 C30.373551,25.8722268 30.7367732,26.235449 31.185,26.236 L34.509,26.236 C34.9576173,26.236 35.3214482,25.8726169 35.322,25.424 L35.322,22.1 C35.3214482,21.6513831 34.9576173,21.2879997 34.509,21.288 L31.185,21.287 Z" id="Shape" fill="#212E5A" />
      <path d="M46.781,28.236 L43.456,28.236 C41.9036607,28.2343465 40.6456535,26.9763393 40.644,25.424 L40.644,22.1 C40.6456535,20.5476607 41.9036607,19.2896535 43.456,19.288 L46.781,19.288 C48.3333393,19.2896535 49.5913465,20.5476607 49.593,22.1 L49.593,25.425 C49.5907956,26.9769488 48.3329495,28.2343476 46.781,28.236 Z M43.456,21.287 C43.0077732,21.287551 42.644551,21.6507732 42.644,22.099 L42.644,25.424 C42.644551,25.8722268 43.0077732,26.235449 43.456,26.236 L46.781,26.236 C47.2292268,26.235449 47.592449,25.8722268 47.593,25.424 L47.593,22.1 C47.592449,21.6517732 47.2292268,21.288551 46.781,21.288 L43.456,21.287 Z" id="Shape" fill="#212E5A" />
      <path d="M34.509,39.318 L31.185,39.318 C29.6328225,39.3168977 28.3746544,38.059177 28.373,36.507 L28.373,33.182 C28.3741023,31.6292702 29.6322707,30.3706544 31.185,30.369 L34.509,30.369 C36.0618916,30.3706535 37.3203465,31.6291084 37.322,33.182 L37.322,36.507 C37.3197946,38.0593388 36.0613399,39.3168987 34.509,39.318 Z M31.185,32.369 C30.7363831,32.3695518 30.373,32.7333827 30.373,33.182 L30.373,36.507 C30.3735518,36.9550646 30.736935,37.318 31.185,37.318 L34.509,37.318 C34.9572276,37.318 35.3208973,36.9552263 35.322,36.507 L35.322,33.182 C35.322,32.7329925 34.9580075,32.369 34.509,32.369 L31.185,32.369 Z" id="Shape" fill="#212E5A" />
      <path d="M22.8,39.318 L19.479,39.318 C17.9268225,39.3168977 16.6686544,38.059177 16.667,36.507 L16.667,33.182 C16.6681023,31.6292702 17.9262707,30.3706544 19.479,30.369 L22.8,30.369 C24.3525011,30.3712044 25.6103476,31.6294983 25.612,33.182 L25.612,36.507 C25.6097956,38.0589488 24.3519495,39.3163476 22.8,39.318 Z M19.475,32.369 C19.0263831,32.3695518 18.663,32.7333827 18.663,33.182 L18.663,36.507 C18.6635518,36.9550646 19.026935,37.318 19.475,37.318 L22.8,37.318 C23.2478372,37.3174505 23.6108986,36.9548362 23.612,36.507 L23.612,33.182 C23.612,32.7333827 23.2486169,32.3695518 22.8,32.369 L19.475,32.369 Z" id="Shape" fill="#212E5A" />
      <path d="M11.1,39.318 L7.773,39.318 C6.22082247,39.3168977 4.96265438,38.059177 4.961,36.507 L4.961,33.182 C4.9621023,31.6292702 6.22027067,30.3706544 7.773,30.369 L11.1,30.369 C12.6527293,30.3706544 13.9108977,31.6292702 13.912,33.182 L13.912,36.507 C13.9103456,38.059177 12.6521775,39.3168977 11.1,39.318 Z M7.775,32.369 C7.32638307,32.3695518 6.963,32.7333827 6.963,33.182 L6.963,36.507 C6.9635518,36.9550646 7.32693502,37.318 7.775,37.318 L11.1,37.318 C11.548065,37.318 11.9114482,36.9550646 11.912,36.507 L11.912,33.182 C11.912,32.7333827 11.5486169,32.3695518 11.1,32.369 L7.775,32.369 Z" id="Shape" fill="#212E5A" />
      <path d="M46.781,39.318 L43.456,39.318 C41.9038225,39.3168977 40.6456544,38.059177 40.644,36.507 L40.644,33.182 C40.6451023,31.6292702 41.9032707,30.3706544 43.456,30.369 L46.781,30.369 C48.3337293,30.3706544 49.5918977,31.6292702 49.593,33.182 L49.593,36.507 C49.5913456,38.059177 48.3331775,39.3168977 46.781,39.318 Z M43.456,32.369 C43.0073831,32.3695518 42.644,32.7333827 42.644,33.182 L42.644,36.507 C42.6445518,36.9550646 43.007935,37.318 43.456,37.318 L46.781,37.318 C47.229065,37.318 47.5924482,36.9550646 47.593,36.507 L47.593,33.182 C47.593,32.7333827 47.2296169,32.3695518 46.781,32.369 L43.456,32.369 Z" id="Shape" fill="#212E5A" />
      <path d="M34.509,50.479 L31.185,50.479 C29.6328225,50.4778977 28.3746544,49.220177 28.373,47.668 L28.373,44.343 C28.3741023,42.7902702 29.6322707,41.5316544 31.185,41.53 L34.509,41.53 C36.0618916,41.5316535 37.3203465,42.7901084 37.322,44.343 L37.322,47.668 C37.3197946,49.2203388 36.0613399,50.4778987 34.509,50.479 Z M31.185,43.53 C30.7363831,43.5305518 30.373,43.8943827 30.373,44.343 L30.373,47.668 C30.3735518,48.1160646 30.736935,48.479 31.185,48.479 L34.509,48.479 C34.9572276,48.479 35.3208973,48.1162263 35.322,47.668 L35.322,44.343 C35.321449,43.8942209 34.9577791,43.530551 34.509,43.53 L31.185,43.53 Z" id="Shape" fill="#212E5A" />
      <path d="M22.8,50.479 L19.479,50.479 C17.9268225,50.4778977 16.6686544,49.220177 16.667,47.668 L16.667,44.343 C16.6681023,42.7902702 17.9262707,41.5316544 19.479,41.53 L22.8,41.53 C24.3525011,41.5322044 25.6103476,42.7904983 25.612,44.343 L25.612,47.668 C25.6097956,49.2199488 24.3519495,50.4773476 22.8,50.479 Z M19.479,43.53 C19.0303831,43.5305518 18.667,43.8943827 18.667,44.343 L18.667,47.668 C18.6675518,48.1160646 19.030935,48.479 19.479,48.479 L22.8,48.479 C23.2478372,48.4784505 23.6108986,48.1158362 23.612,47.668 L23.612,44.343 C23.6114505,43.8946105 23.2483885,43.5311014 22.8,43.53 L19.479,43.53 Z" id="Shape" fill="#212E5A" />
      <path d="M11.1,50.479 L7.773,50.479 C6.22082247,50.4778977 4.96265438,49.220177 4.961,47.668 L4.961,44.343 C4.9621023,42.7902702 6.22027067,41.5316544 7.773,41.53 L11.1,41.53 C12.6527293,41.5316544 13.9108977,42.7902702 13.912,44.343 L13.912,47.668 C13.9103456,49.220177 12.6521775,50.4778977 11.1,50.479 Z M7.773,43.53 C7.32438307,43.5305518 6.961,43.8943827 6.961,44.343 L6.961,47.668 C6.9615518,48.1160646 7.32493502,48.479 7.773,48.479 L11.1,48.479 C11.548065,48.479 11.9114482,48.1160646 11.912,47.668 L11.912,44.343 C11.912,43.8943827 11.5486169,43.5305518 11.1,43.53 L7.773,43.53 Z" id="Shape" fill="#212E5A" />
      <path d="M54.3000023,15.481 L54.3000023,8.04 C54.3016612,6.92759907 53.4023955,6.02385935 52.29,6.02 L42.64,6.02 L42.64,3.37 C42.6399999,1.86226268 41.4177373,0.640000115 39.91,0.640000115 C38.4022627,0.640000115 37.1800001,1.86226268 37.18,3.37 L37.18,6.02 L17.7,6.02 L17.7,3.37 C17.7,1.85950121 16.4754988,0.635 14.965,0.635 C13.4545012,0.635 12.23,1.85950121 12.23,3.37 L12.23,6.02 L2.49,6.02 C1.37484179,6.02110248 0.471102481,6.92484179 0.47,8.04 L0.47,53.76 C0.473859352,54.8723955 1.37759907,55.7716612 2.49,55.7700023 L52.29,55.7700023 C53.3994073,55.7683479 54.2983479,54.8694073 54.3000023,53.76 L54.3000023,15.481 Z M39.18,7.02 L39.18,3.37 C39.18,2.96683213 39.5068321,2.64 39.91,2.64 C40.3131679,2.64 40.64,2.96683213 40.64,3.37 L40.64,10 C40.64,10.4031679 40.3131679,10.73 39.91,10.73 C39.5068321,10.73 39.18,10.4031679 39.18,10 L39.18,7.02 Z M14.23,7.02 L14.23,3.37 C14.23,2.96407071 14.5590707,2.635 14.965,2.635 C15.3709293,2.635 15.7,2.96407071 15.7,3.37 L15.7,10 C15.7,10.4059293 15.3709293,10.735 14.965,10.735 C14.5590707,10.735 14.23,10.4059293 14.23,10 L14.23,7.02 Z M12.23,8.02 L12.23,10 C12.23,11.5104988 13.4545012,12.735 14.965,12.735 C16.4754988,12.735 17.7,11.5104988 17.7,10 L17.7,8.02 L37.18,8.02 L37.18,10 C37.18,10.9753351 37.700335,11.8765819 38.545,12.3642494 C39.3896649,12.851917 40.4303351,12.851917 41.275,12.3642494 C42.119665,11.8765819 42.64,10.9753351 42.64,10 L42.64,8.02 L52.284,8.02 C52.2922923,8.02415092 52.2981989,8.03190336 52.3,8.041 L52.3,14.482 L2.487,14.482 L2.487,8.021 L12.23,8.02 Z M2.47,53.76 L2.486,16.481 L52.3,16.481 L52.29,53.77 L2.47,53.76 Z" id="Shape" fill="#212E5A" />
    </g>
  </g>
</svg>
